<svg width="27" height="23" viewBox="0 0 27 23" fill="none" xmlns="http://www.w3.org/2000/svg">
<path d="M24.3286 6.20432C24.3391 6.43323 24.3391 6.6621 24.3391 6.89102C24.3382 12.4348 21.3158 17.5373 16.4544 20.2019C11.5931 22.8665 5.66586 22.6696 0.992126 19.6881C1.41331 19.7386 1.83722 19.7629 2.26142 19.761C4.66495 19.764 6.9995 18.9577 8.88889 17.472C6.6063 17.4309 4.60287 15.9419 3.90529 13.7682C4.70317 13.9192 5.52493 13.8872 6.30865 13.6745C3.82166 13.1664 2.03482 10.9796 2.03255 8.44122V8.36839C2.77379 8.77653 3.60063 9.00464 4.44629 9.03429C2.10569 7.46389 1.38251 4.34828 2.79204 1.90742C5.50128 5.24145 9.49862 7.26848 13.7892 7.48404C13.702 7.08408 13.6567 6.67612 13.654 6.26677C13.6536 4.07714 14.9908 2.10947 17.0268 1.30378C19.0628 0.498094 21.3844 1.0179 22.8825 2.61488C24.0787 2.38278 25.2261 1.94637 26.2743 1.32478C25.8742 2.56198 25.0387 3.61192 23.9229 4.27955C24.9819 4.1516 26.0162 3.86761 26.9921 3.43681C26.2756 4.51013 25.3737 5.44727 24.3286 6.20432Z" fill="#262626"/>
</svg>
